<mxfile host="Electron" modified="2024-05-02T13:50:55.566Z" agent="Mozilla/5.0 (Windows NT 10.0; Win64; x64) AppleWebKit/537.36 (KHTML, like Gecko) draw.io/24.2.5 Chrome/120.0.6099.109 Electron/28.1.0 Safari/537.36" etag="3ra4yGMtIOz9SvpAHnQm" version="24.2.5" type="device">
  <diagram id="aLbiV9HqxBW7Gw7xj5Fm" name="PÃ¡gina-1">
    <mxGraphModel dx="2876" dy="2363" grid="1" gridSize="10" guides="1" tooltips="1" connect="1" arrows="1" fold="1" page="1" pageScale="1" pageWidth="827" pageHeight="1169" math="0" shadow="0">
      <root>
        <mxCell id="0" />
        <mxCell id="1" parent="0" />
        <mxCell id="3gWHudCBHlOKcS4b1Oc7-14" style="edgeStyle=none;shape=connector;rounded=0;orthogonalLoop=1;jettySize=auto;html=1;labelBackgroundColor=default;fontFamily=Helvetica;fontSize=11;fontColor=default;startArrow=none;startFill=0;endArrow=oval;endFill=0;endSize=12;strokeColor=default;exitX=0;exitY=0.5;exitDx=0;exitDy=0;" parent="1" source="3gWHudCBHlOKcS4b1Oc7-6" edge="1">
          <mxGeometry relative="1" as="geometry">
            <mxPoint x="-220" y="250" as="targetPoint" />
          </mxGeometry>
        </mxCell>
        <mxCell id="3gWHudCBHlOKcS4b1Oc7-15" style="edgeStyle=none;shape=connector;rounded=0;orthogonalLoop=1;jettySize=auto;html=1;labelBackgroundColor=default;fontFamily=Helvetica;fontSize=11;fontColor=default;startArrow=none;startFill=0;endArrow=oval;endFill=0;endSize=12;strokeColor=default;exitX=0;exitY=0.5;exitDx=0;exitDy=0;" parent="1" source="3gWHudCBHlOKcS4b1Oc7-6" edge="1">
          <mxGeometry relative="1" as="geometry">
            <mxPoint x="-220" y="310" as="targetPoint" />
          </mxGeometry>
        </mxCell>
        <mxCell id="3gWHudCBHlOKcS4b1Oc7-17" style="edgeStyle=none;shape=connector;rounded=0;orthogonalLoop=1;jettySize=auto;html=1;labelBackgroundColor=default;fontFamily=Helvetica;fontSize=11;fontColor=default;startArrow=none;startFill=0;endArrow=oval;endFill=0;endSize=12;strokeColor=default;exitX=0;exitY=0.5;exitDx=0;exitDy=0;dashed=1;" parent="1" source="3gWHudCBHlOKcS4b1Oc7-6" edge="1">
          <mxGeometry relative="1" as="geometry">
            <mxPoint x="-220" y="370" as="targetPoint" />
          </mxGeometry>
        </mxCell>
        <mxCell id="3gWHudCBHlOKcS4b1Oc7-20" style="edgeStyle=none;shape=connector;rounded=0;orthogonalLoop=1;jettySize=auto;html=1;exitX=0;exitY=0.5;exitDx=0;exitDy=0;labelBackgroundColor=default;fontFamily=Helvetica;fontSize=11;fontColor=default;startArrow=none;startFill=0;endArrow=oval;endFill=0;endSize=12;strokeColor=default;" parent="1" source="3gWHudCBHlOKcS4b1Oc7-6" edge="1">
          <mxGeometry relative="1" as="geometry">
            <mxPoint x="-220" y="400" as="targetPoint" />
          </mxGeometry>
        </mxCell>
        <mxCell id="3gWHudCBHlOKcS4b1Oc7-104" style="edgeStyle=none;shape=connector;rounded=0;orthogonalLoop=1;jettySize=auto;html=1;labelBackgroundColor=default;fontFamily=Helvetica;fontSize=11;fontColor=default;startArrow=none;startFill=0;endArrow=oval;endFill=0;endSize=12;strokeColor=default;exitX=0;exitY=0.5;exitDx=0;exitDy=0;" parent="1" source="3gWHudCBHlOKcS4b1Oc7-6" edge="1">
          <mxGeometry relative="1" as="geometry">
            <mxPoint x="-220" y="430" as="targetPoint" />
          </mxGeometry>
        </mxCell>
        <mxCell id="S6vCmVzYr5Xgs-W6xYdx-2" style="edgeStyle=orthogonalEdgeStyle;rounded=0;orthogonalLoop=1;jettySize=auto;html=1;exitX=1;exitY=1;exitDx=0;exitDy=0;entryX=0;entryY=0.5;entryDx=0;entryDy=0;endArrow=none;endFill=0;" parent="1" source="3gWHudCBHlOKcS4b1Oc7-6" target="S6vCmVzYr5Xgs-W6xYdx-1" edge="1">
          <mxGeometry relative="1" as="geometry">
            <Array as="points">
              <mxPoint x="120" y="360" />
              <mxPoint x="120" y="420" />
            </Array>
          </mxGeometry>
        </mxCell>
        <mxCell id="t_ZXsuRF_0sbjg6oZpXm-5" style="rounded=0;orthogonalLoop=1;jettySize=auto;html=1;endArrow=oval;endFill=0;startSize=6;endSize=12;" parent="1" edge="1">
          <mxGeometry relative="1" as="geometry">
            <mxPoint x="-180.48000000000002" y="405" as="targetPoint" />
            <mxPoint x="-180.48000000000002" y="405" as="sourcePoint" />
          </mxGeometry>
        </mxCell>
        <mxCell id="t_ZXsuRF_0sbjg6oZpXm-6" style="edgeStyle=none;rounded=0;orthogonalLoop=1;jettySize=auto;html=1;endArrow=oval;endFill=1;startSize=6;endSize=12;shadow=0;labelBackgroundColor=#0A0A0A;startFill=0;exitX=0;exitY=0.5;exitDx=0;exitDy=0;" parent="1" source="3gWHudCBHlOKcS4b1Oc7-6" edge="1">
          <mxGeometry relative="1" as="geometry">
            <mxPoint x="-220" y="220" as="targetPoint" />
          </mxGeometry>
        </mxCell>
        <mxCell id="OAtFKCcMEsRw6Mtl-Hrg-4" style="edgeStyle=orthogonalEdgeStyle;rounded=0;orthogonalLoop=1;jettySize=auto;html=1;endArrow=none;endFill=0;entryX=0;entryY=0.5;entryDx=0;entryDy=0;" parent="1" source="3gWHudCBHlOKcS4b1Oc7-6" target="S6vCmVzYr5Xgs-W6xYdx-17" edge="1">
          <mxGeometry relative="1" as="geometry">
            <mxPoint x="110" y="330" as="targetPoint" />
            <Array as="points">
              <mxPoint x="200" y="330" />
            </Array>
          </mxGeometry>
        </mxCell>
        <mxCell id="3gWHudCBHlOKcS4b1Oc7-6" value="PROFESOR" style="rounded=0;whiteSpace=wrap;html=1;" parent="1" vertex="1">
          <mxGeometry x="-122.97999999999999" y="300" width="120" height="60" as="geometry" />
        </mxCell>
        <mxCell id="3gWHudCBHlOKcS4b1Oc7-32" style="edgeStyle=none;shape=connector;rounded=0;orthogonalLoop=1;jettySize=auto;html=1;labelBackgroundColor=default;fontFamily=Helvetica;fontSize=11;fontColor=default;startArrow=none;startFill=0;endArrow=oval;endFill=0;endSize=12;strokeColor=default;exitX=0;exitY=0.5;exitDx=0;exitDy=0;" parent="1" source="3gWHudCBHlOKcS4b1Oc7-21" edge="1">
          <mxGeometry relative="1" as="geometry">
            <mxPoint x="-173" y="589.9" as="targetPoint" />
            <mxPoint x="-115.98000000000002" y="589.9" as="sourcePoint" />
          </mxGeometry>
        </mxCell>
        <mxCell id="3gWHudCBHlOKcS4b1Oc7-33" style="edgeStyle=none;shape=connector;rounded=0;orthogonalLoop=1;jettySize=auto;html=1;exitX=0;exitY=0.5;exitDx=0;exitDy=0;labelBackgroundColor=default;fontFamily=Helvetica;fontSize=11;fontColor=default;startArrow=none;startFill=0;endArrow=oval;endFill=0;endSize=12;strokeColor=default;" parent="1" edge="1">
          <mxGeometry relative="1" as="geometry">
            <mxPoint x="-121.98000000000002" y="590" as="sourcePoint" />
            <mxPoint x="-171" y="620" as="targetPoint" />
          </mxGeometry>
        </mxCell>
        <mxCell id="3gWHudCBHlOKcS4b1Oc7-34" style="edgeStyle=none;shape=connector;rounded=0;orthogonalLoop=1;jettySize=auto;html=1;exitX=0;exitY=0.5;exitDx=0;exitDy=0;labelBackgroundColor=default;fontFamily=Helvetica;fontSize=11;fontColor=default;startArrow=none;startFill=0;endArrow=oval;endFill=1;endSize=12;strokeColor=default;" parent="1" source="3gWHudCBHlOKcS4b1Oc7-21" edge="1">
          <mxGeometry relative="1" as="geometry">
            <mxPoint x="-124.98000000000002" y="590" as="sourcePoint" />
            <mxPoint x="-172" y="560" as="targetPoint" />
          </mxGeometry>
        </mxCell>
        <mxCell id="3gWHudCBHlOKcS4b1Oc7-21" value="DEPARTAMENTO" style="rounded=0;whiteSpace=wrap;html=1;fontFamily=Helvetica;fontSize=11;fontColor=default;" parent="1" vertex="1">
          <mxGeometry x="-122.97999999999999" y="560" width="120" height="60" as="geometry" />
        </mxCell>
        <mxCell id="3gWHudCBHlOKcS4b1Oc7-24" style="edgeStyle=none;shape=connector;rounded=0;orthogonalLoop=1;jettySize=auto;html=1;exitX=0.5;exitY=0;exitDx=0;exitDy=0;labelBackgroundColor=default;fontFamily=Helvetica;fontSize=11;fontColor=default;startArrow=none;startFill=0;endArrow=none;endFill=0;endSize=12;strokeColor=default;entryX=0.5;entryY=1;entryDx=0;entryDy=0;" parent="1" source="3gWHudCBHlOKcS4b1Oc7-23" target="3gWHudCBHlOKcS4b1Oc7-6" edge="1">
          <mxGeometry relative="1" as="geometry">
            <mxPoint x="339.52" y="395" as="targetPoint" />
          </mxGeometry>
        </mxCell>
        <mxCell id="3gWHudCBHlOKcS4b1Oc7-25" style="edgeStyle=none;shape=connector;rounded=0;orthogonalLoop=1;jettySize=auto;html=1;exitX=0.5;exitY=1;exitDx=0;exitDy=0;labelBackgroundColor=default;fontFamily=Helvetica;fontSize=11;fontColor=default;startArrow=none;startFill=0;endArrow=none;endFill=0;endSize=12;strokeColor=default;entryX=0.5;entryY=0;entryDx=0;entryDy=0;" parent="1" source="3gWHudCBHlOKcS4b1Oc7-23" target="3gWHudCBHlOKcS4b1Oc7-21" edge="1">
          <mxGeometry relative="1" as="geometry">
            <mxPoint x="344.52" y="585" as="targetPoint" />
          </mxGeometry>
        </mxCell>
        <mxCell id="3gWHudCBHlOKcS4b1Oc7-43" style="edgeStyle=orthogonalEdgeStyle;shape=connector;rounded=0;orthogonalLoop=1;jettySize=auto;html=1;exitX=0;exitY=0.5;exitDx=0;exitDy=0;labelBackgroundColor=default;fontFamily=Helvetica;fontSize=11;fontColor=default;startArrow=none;startFill=0;endArrow=oval;endFill=0;endSize=12;strokeColor=default;dashed=1;" parent="1" source="3gWHudCBHlOKcS4b1Oc7-23" edge="1">
          <mxGeometry relative="1" as="geometry">
            <mxPoint x="-139.91" y="459.76" as="targetPoint" />
            <Array as="points">
              <mxPoint x="-140" y="460" />
            </Array>
            <mxPoint x="-172.99999999999991" y="459.7600000000002" as="sourcePoint" />
          </mxGeometry>
        </mxCell>
        <mxCell id="3gWHudCBHlOKcS4b1Oc7-23" value="pertenece" style="rhombus;whiteSpace=wrap;html=1;fontFamily=Helvetica;fontSize=11;fontColor=default;" parent="1" vertex="1">
          <mxGeometry x="-102.87" y="440" width="79.78" height="40" as="geometry" />
        </mxCell>
        <mxCell id="3gWHudCBHlOKcS4b1Oc7-49" style="edgeStyle=none;shape=connector;rounded=0;orthogonalLoop=1;jettySize=auto;html=1;exitX=1;exitY=0.5;exitDx=0;exitDy=0;labelBackgroundColor=default;fontFamily=Helvetica;fontSize=11;fontColor=default;startArrow=none;startFill=0;endArrow=oval;endFill=0;endSize=12;strokeColor=default;" parent="1" edge="1">
          <mxGeometry relative="1" as="geometry">
            <mxPoint x="309.52" y="305" as="sourcePoint" />
            <mxPoint x="309.52" y="305" as="targetPoint" />
          </mxGeometry>
        </mxCell>
        <mxCell id="t_ZXsuRF_0sbjg6oZpXm-16" style="edgeStyle=none;rounded=0;orthogonalLoop=1;jettySize=auto;html=1;exitX=1;exitY=0.5;exitDx=0;exitDy=0;shadow=0;labelBackgroundColor=#0A0A0A;startFill=0;endArrow=oval;endFill=0;endSize=12;" parent="1" source="3gWHudCBHlOKcS4b1Oc7-64" edge="1">
          <mxGeometry relative="1" as="geometry">
            <mxPoint x="1030" y="570" as="targetPoint" />
          </mxGeometry>
        </mxCell>
        <mxCell id="t_ZXsuRF_0sbjg6oZpXm-18" style="edgeStyle=none;rounded=0;orthogonalLoop=1;jettySize=auto;html=1;exitX=1;exitY=0.5;exitDx=0;exitDy=0;shadow=0;labelBackgroundColor=#0A0A0A;startFill=0;endArrow=oval;endFill=0;endSize=12;dashed=1;" parent="1" source="3gWHudCBHlOKcS4b1Oc7-64" edge="1">
          <mxGeometry relative="1" as="geometry">
            <mxPoint x="970" y="595" as="sourcePoint" />
            <mxPoint x="1030" y="600" as="targetPoint" />
          </mxGeometry>
        </mxCell>
        <mxCell id="t_ZXsuRF_0sbjg6oZpXm-19" style="edgeStyle=none;rounded=0;orthogonalLoop=1;jettySize=auto;html=1;exitX=1;exitY=0.5;exitDx=0;exitDy=0;shadow=0;labelBackgroundColor=#0A0A0A;startFill=0;endArrow=oval;endFill=0;endSize=12;" parent="1" source="3gWHudCBHlOKcS4b1Oc7-64" edge="1">
          <mxGeometry relative="1" as="geometry">
            <mxPoint x="1030" y="630" as="targetPoint" />
          </mxGeometry>
        </mxCell>
        <mxCell id="t_ZXsuRF_0sbjg6oZpXm-20" style="edgeStyle=none;rounded=0;orthogonalLoop=1;jettySize=auto;html=1;exitX=1;exitY=0.5;exitDx=0;exitDy=0;shadow=0;labelBackgroundColor=#0A0A0A;startFill=0;endArrow=oval;endFill=0;endSize=12;" parent="1" source="3gWHudCBHlOKcS4b1Oc7-64" edge="1">
          <mxGeometry relative="1" as="geometry">
            <mxPoint x="1030" y="540" as="targetPoint" />
          </mxGeometry>
        </mxCell>
        <mxCell id="t_ZXsuRF_0sbjg6oZpXm-21" style="edgeStyle=none;rounded=0;orthogonalLoop=1;jettySize=auto;html=1;exitX=1;exitY=0.5;exitDx=0;exitDy=0;shadow=0;labelBackgroundColor=#0A0A0A;startFill=0;endArrow=oval;endFill=1;endSize=12;" parent="1" source="3gWHudCBHlOKcS4b1Oc7-64" edge="1">
          <mxGeometry relative="1" as="geometry">
            <mxPoint x="1030" y="510" as="targetPoint" />
          </mxGeometry>
        </mxCell>
        <mxCell id="OAtFKCcMEsRw6Mtl-Hrg-20" style="edgeStyle=orthogonalEdgeStyle;rounded=0;orthogonalLoop=1;jettySize=auto;html=1;entryX=0.5;entryY=1;entryDx=0;entryDy=0;exitX=0.5;exitY=0;exitDx=0;exitDy=0;endArrow=none;endFill=0;" parent="1" source="3gWHudCBHlOKcS4b1Oc7-64" target="3Nn-a9NeeV98uaJ4bR6z-6" edge="1">
          <mxGeometry relative="1" as="geometry">
            <mxPoint x="760" y="435" as="targetPoint" />
          </mxGeometry>
        </mxCell>
        <mxCell id="3gWHudCBHlOKcS4b1Oc7-64" value="CURSO" style="whiteSpace=wrap;html=1;fontFamily=Helvetica;fontSize=11;fontColor=default;" parent="1" vertex="1">
          <mxGeometry x="840" y="560" width="120" height="60" as="geometry" />
        </mxCell>
        <mxCell id="3gWHudCBHlOKcS4b1Oc7-77" style="edgeStyle=none;shape=connector;rounded=0;orthogonalLoop=1;jettySize=auto;html=1;exitX=0;exitY=0.5;exitDx=0;exitDy=0;labelBackgroundColor=default;fontFamily=Helvetica;fontSize=11;fontColor=default;startArrow=none;startFill=0;endArrow=oval;endFill=1;endSize=12;strokeColor=default;" parent="1" source="3gWHudCBHlOKcS4b1Oc7-73" edge="1">
          <mxGeometry relative="1" as="geometry">
            <mxPoint x="470" y="610" as="sourcePoint" />
            <mxPoint x="410" y="540" as="targetPoint" />
          </mxGeometry>
        </mxCell>
        <mxCell id="3gWHudCBHlOKcS4b1Oc7-78" style="edgeStyle=none;shape=connector;rounded=0;orthogonalLoop=1;jettySize=auto;html=1;exitX=0;exitY=0.5;exitDx=0;exitDy=0;labelBackgroundColor=default;fontFamily=Helvetica;fontSize=11;fontColor=default;startArrow=none;startFill=0;endArrow=oval;endFill=0;endSize=12;strokeColor=default;" parent="1" source="3gWHudCBHlOKcS4b1Oc7-73" edge="1">
          <mxGeometry relative="1" as="geometry">
            <mxPoint x="410" y="565" as="targetPoint" />
            <Array as="points" />
            <mxPoint x="480" y="575" as="sourcePoint" />
          </mxGeometry>
        </mxCell>
        <mxCell id="3gWHudCBHlOKcS4b1Oc7-79" style="edgeStyle=none;shape=connector;rounded=0;orthogonalLoop=1;jettySize=auto;html=1;exitX=0;exitY=0.5;exitDx=0;exitDy=0;labelBackgroundColor=default;fontFamily=Helvetica;fontSize=11;fontColor=default;startArrow=none;startFill=0;endArrow=oval;endFill=0;endSize=12;strokeColor=default;dashed=1;" parent="1" source="3gWHudCBHlOKcS4b1Oc7-73" edge="1">
          <mxGeometry relative="1" as="geometry">
            <mxPoint x="410" y="590" as="targetPoint" />
          </mxGeometry>
        </mxCell>
        <mxCell id="S6vCmVzYr5Xgs-W6xYdx-14" style="rounded=0;orthogonalLoop=1;jettySize=auto;html=1;exitX=0;exitY=0.5;exitDx=0;exitDy=0;endArrow=oval;endFill=0;endSize=12;" parent="1" source="3gWHudCBHlOKcS4b1Oc7-73" edge="1">
          <mxGeometry relative="1" as="geometry">
            <mxPoint x="410" y="615" as="targetPoint" />
            <mxPoint x="480" y="595" as="sourcePoint" />
          </mxGeometry>
        </mxCell>
        <mxCell id="t_ZXsuRF_0sbjg6oZpXm-8" style="edgeStyle=orthogonalEdgeStyle;rounded=0;orthogonalLoop=1;jettySize=auto;html=1;exitX=0.5;exitY=0;exitDx=0;exitDy=0;entryX=0.5;entryY=1;entryDx=0;entryDy=0;shadow=0;labelBackgroundColor=#0A0A0A;startFill=0;endArrow=none;endFill=0;startSize=6;endSize=12;" parent="1" source="3gWHudCBHlOKcS4b1Oc7-73" target="3gWHudCBHlOKcS4b1Oc7-132" edge="1">
          <mxGeometry relative="1" as="geometry">
            <mxPoint x="560" y="480" as="targetPoint" />
          </mxGeometry>
        </mxCell>
        <mxCell id="OAtFKCcMEsRw6Mtl-Hrg-11" style="edgeStyle=orthogonalEdgeStyle;rounded=0;orthogonalLoop=1;jettySize=auto;html=1;entryX=0;entryY=0.5;entryDx=0;entryDy=0;endArrow=none;endFill=0;" parent="1" source="3gWHudCBHlOKcS4b1Oc7-73" edge="1">
          <mxGeometry relative="1" as="geometry">
            <mxPoint x="680" y="590" as="targetPoint" />
          </mxGeometry>
        </mxCell>
        <mxCell id="3gWHudCBHlOKcS4b1Oc7-73" value="GRUPO" style="whiteSpace=wrap;html=1;fontFamily=Helvetica;fontSize=11;fontColor=default;" parent="1" vertex="1">
          <mxGeometry x="480" y="560" width="120" height="60" as="geometry" />
        </mxCell>
        <mxCell id="3gWHudCBHlOKcS4b1Oc7-133" style="edgeStyle=orthogonalEdgeStyle;shape=connector;rounded=0;orthogonalLoop=1;jettySize=auto;html=1;exitX=0.5;exitY=0;exitDx=0;exitDy=0;labelBackgroundColor=default;fontFamily=Helvetica;fontSize=11;fontColor=default;startArrow=none;startFill=0;endArrow=none;endFill=0;endSize=12;strokeColor=default;entryX=0;entryY=1;entryDx=0;entryDy=0;" parent="1" source="3gWHudCBHlOKcS4b1Oc7-132" target="3gWHudCBHlOKcS4b1Oc7-80" edge="1">
          <mxGeometry relative="1" as="geometry">
            <Array as="points">
              <mxPoint x="540" y="360" />
            </Array>
          </mxGeometry>
        </mxCell>
        <mxCell id="3gWHudCBHlOKcS4b1Oc7-132" value="participa 1" style="rhombus;whiteSpace=wrap;html=1;fontFamily=Helvetica;fontSize=11;fontColor=default;" parent="1" vertex="1">
          <mxGeometry x="500" y="440" width="80" height="40" as="geometry" />
        </mxCell>
        <mxCell id="3gWHudCBHlOKcS4b1Oc7-138" style="edgeStyle=orthogonalEdgeStyle;shape=connector;rounded=0;orthogonalLoop=1;jettySize=auto;html=1;labelBackgroundColor=default;fontFamily=Helvetica;fontSize=11;fontColor=default;startArrow=none;startFill=0;endArrow=none;endFill=0;endSize=12;strokeColor=default;exitX=1;exitY=0.5;exitDx=0;exitDy=0;" parent="1" source="3gWHudCBHlOKcS4b1Oc7-136" target="3gWHudCBHlOKcS4b1Oc7-64" edge="1">
          <mxGeometry relative="1" as="geometry">
            <mxPoint x="820" y="580" as="sourcePoint" />
          </mxGeometry>
        </mxCell>
        <mxCell id="3gWHudCBHlOKcS4b1Oc7-136" value="pertenece" style="rhombus;whiteSpace=wrap;html=1;fontFamily=Helvetica;fontSize=11;fontColor=default;" parent="1" vertex="1">
          <mxGeometry x="680" y="570" width="80" height="40" as="geometry" />
        </mxCell>
        <mxCell id="t_ZXsuRF_0sbjg6oZpXm-28" style="edgeStyle=orthogonalEdgeStyle;rounded=0;orthogonalLoop=1;jettySize=auto;html=1;exitX=1;exitY=0.5;exitDx=0;exitDy=0;entryX=0;entryY=1;entryDx=0;entryDy=0;shadow=0;labelBackgroundColor=#0A0A0A;startFill=0;endArrow=none;endFill=0;endSize=12;" parent="1" source="S6vCmVzYr5Xgs-W6xYdx-1" target="3gWHudCBHlOKcS4b1Oc7-80" edge="1">
          <mxGeometry relative="1" as="geometry">
            <Array as="points">
              <mxPoint x="360" y="420" />
              <mxPoint x="360" y="360" />
            </Array>
          </mxGeometry>
        </mxCell>
        <mxCell id="S6vCmVzYr5Xgs-W6xYdx-1" value="responsable" style="rhombus;whiteSpace=wrap;html=1;fontFamily=Helvetica;fontSize=11;fontColor=default;" parent="1" vertex="1">
          <mxGeometry x="200" y="400" width="80" height="40" as="geometry" />
        </mxCell>
        <mxCell id="t_ZXsuRF_0sbjg6oZpXm-40" style="edgeStyle=orthogonalEdgeStyle;rounded=0;jumpSize=6;orthogonalLoop=1;jettySize=auto;html=1;exitX=0;exitY=0.5;exitDx=0;exitDy=0;shadow=0;labelBackgroundColor=#0A0A0A;startFill=0;endArrow=none;endFill=0;endSize=12;targetPerimeterSpacing=0;strokeWidth=1;entryX=1;entryY=0;entryDx=0;entryDy=0;" parent="1" source="CpKXC5ssTcZDW4LYyZ8A-2" target="3gWHudCBHlOKcS4b1Oc7-6" edge="1">
          <mxGeometry relative="1" as="geometry">
            <mxPoint x="244.01999999999998" y="250" as="sourcePoint" />
            <mxPoint x="9.519999999999996" y="285" as="targetPoint" />
            <Array as="points">
              <mxPoint x="200" y="240" />
              <mxPoint x="120" y="240" />
              <mxPoint x="120" y="300" />
            </Array>
          </mxGeometry>
        </mxCell>
        <mxCell id="OAtFKCcMEsRw6Mtl-Hrg-21" style="edgeStyle=orthogonalEdgeStyle;rounded=0;orthogonalLoop=1;jettySize=auto;html=1;entryX=0;entryY=0;entryDx=0;entryDy=0;endArrow=none;endFill=0;" parent="1" source="CpKXC5ssTcZDW4LYyZ8A-2" target="3gWHudCBHlOKcS4b1Oc7-80" edge="1">
          <mxGeometry relative="1" as="geometry">
            <Array as="points">
              <mxPoint x="360" y="240" />
              <mxPoint x="360" y="300" />
            </Array>
          </mxGeometry>
        </mxCell>
        <mxCell id="CpKXC5ssTcZDW4LYyZ8A-2" value="solicita" style="rhombus;whiteSpace=wrap;html=1;fontFamily=Helvetica;fontSize=11;fontColor=default;" parent="1" vertex="1">
          <mxGeometry x="200" y="220" width="80" height="40" as="geometry" />
        </mxCell>
        <mxCell id="t_ZXsuRF_0sbjg6oZpXm-39" style="edgeStyle=orthogonalEdgeStyle;rounded=0;jumpSize=6;orthogonalLoop=1;jettySize=auto;html=1;exitX=1;exitY=0.5;exitDx=0;exitDy=0;entryX=0;entryY=0.5;entryDx=0;entryDy=0;shadow=0;labelBackgroundColor=#0A0A0A;startFill=0;endArrow=none;endFill=0;endSize=12;targetPerimeterSpacing=0;strokeWidth=1;" parent="1" source="S6vCmVzYr5Xgs-W6xYdx-17" target="3gWHudCBHlOKcS4b1Oc7-80" edge="1">
          <mxGeometry relative="1" as="geometry" />
        </mxCell>
        <mxCell id="S6vCmVzYr5Xgs-W6xYdx-17" value="participa" style="rhombus;whiteSpace=wrap;html=1;fontFamily=Helvetica;fontSize=11;fontColor=default;" parent="1" vertex="1">
          <mxGeometry x="200" y="310" width="80" height="40" as="geometry" />
        </mxCell>
        <mxCell id="OAtFKCcMEsRw6Mtl-Hrg-25" style="edgeStyle=orthogonalEdgeStyle;rounded=0;orthogonalLoop=1;jettySize=auto;html=1;entryX=0.5;entryY=1;entryDx=0;entryDy=0;endArrow=none;endFill=0;exitX=0;exitY=0;exitDx=0;exitDy=0;" parent="1" source="3gWHudCBHlOKcS4b1Oc7-80" target="OAtFKCcMEsRw6Mtl-Hrg-24" edge="1">
          <mxGeometry relative="1" as="geometry">
            <Array as="points">
              <mxPoint x="480" y="196" />
            </Array>
          </mxGeometry>
        </mxCell>
        <mxCell id="lJ8SzEV2wu39kDBbQSC--21" value="" style="edgeStyle=orthogonalEdgeStyle;rounded=0;orthogonalLoop=1;jettySize=auto;html=1;entryX=0.5;entryY=1;entryDx=0;entryDy=0;endArrow=none;endFill=0;" parent="1" source="3gWHudCBHlOKcS4b1Oc7-80" target="lJ8SzEV2wu39kDBbQSC--22" edge="1">
          <mxGeometry relative="1" as="geometry">
            <mxPoint x="550" y="120" as="targetPoint" />
          </mxGeometry>
        </mxCell>
        <mxCell id="3gWHudCBHlOKcS4b1Oc7-80" value="A_SOLICITADA" style="whiteSpace=wrap;html=1;fontFamily=Helvetica;fontSize=11;fontColor=default;" parent="1" vertex="1">
          <mxGeometry x="480" y="300" width="120" height="60" as="geometry" />
        </mxCell>
        <mxCell id="3Nn-a9NeeV98uaJ4bR6z-8" style="edgeStyle=orthogonalEdgeStyle;rounded=0;orthogonalLoop=1;jettySize=auto;html=1;exitX=0.5;exitY=0;exitDx=0;exitDy=0;endArrow=none;endFill=0;endSize=12;entryX=1;entryY=1;entryDx=0;entryDy=0;" parent="1" source="3Nn-a9NeeV98uaJ4bR6z-6" target="3gWHudCBHlOKcS4b1Oc7-80" edge="1">
          <mxGeometry relative="1" as="geometry">
            <Array as="points">
              <mxPoint x="900" y="360" />
            </Array>
          </mxGeometry>
        </mxCell>
        <mxCell id="3Nn-a9NeeV98uaJ4bR6z-6" value="participa 2" style="rhombus;whiteSpace=wrap;html=1;fontFamily=Helvetica;fontSize=11;fontColor=default;" parent="1" vertex="1">
          <mxGeometry x="860" y="440" width="80" height="40" as="geometry" />
        </mxCell>
        <mxCell id="gsrv9x8wLsgkJ8-gVyWv-1" value="id" style="text;html=1;align=center;verticalAlign=middle;resizable=0;points=[];autosize=1;strokeColor=none;fillColor=none;" parent="1" vertex="1">
          <mxGeometry x="-250" y="205" width="30" height="30" as="geometry" />
        </mxCell>
        <mxCell id="gsrv9x8wLsgkJ8-gVyWv-2" value="" style="rounded=0;orthogonalLoop=1;jettySize=auto;html=1;endArrow=oval;endFill=0;startSize=6;endSize=12;exitX=0;exitY=0.5;exitDx=0;exitDy=0;" parent="1" source="3gWHudCBHlOKcS4b1Oc7-6" edge="1">
          <mxGeometry relative="1" as="geometry">
            <mxPoint x="-220" y="340" as="targetPoint" />
            <mxPoint x="-100" y="355" as="sourcePoint" />
          </mxGeometry>
        </mxCell>
        <mxCell id="gsrv9x8wLsgkJ8-gVyWv-4" value="dni" style="text;html=1;align=center;verticalAlign=middle;resizable=0;points=[];autosize=1;strokeColor=none;fillColor=none;" parent="1" vertex="1">
          <mxGeometry x="-260" y="235" width="40" height="30" as="geometry" />
        </mxCell>
        <mxCell id="gsrv9x8wLsgkJ8-gVyWv-5" style="edgeStyle=none;shape=connector;rounded=0;orthogonalLoop=1;jettySize=auto;html=1;labelBackgroundColor=default;fontFamily=Helvetica;fontSize=11;fontColor=default;startArrow=none;startFill=0;endArrow=oval;endFill=0;endSize=12;strokeColor=default;exitX=0;exitY=0.5;exitDx=0;exitDy=0;" parent="1" source="3gWHudCBHlOKcS4b1Oc7-6" edge="1">
          <mxGeometry relative="1" as="geometry">
            <mxPoint x="-112" y="363" as="sourcePoint" />
            <mxPoint x="-220" y="280" as="targetPoint" />
          </mxGeometry>
        </mxCell>
        <mxCell id="gsrv9x8wLsgkJ8-gVyWv-6" value="nombre" style="text;html=1;align=center;verticalAlign=middle;resizable=0;points=[];autosize=1;strokeColor=none;fillColor=none;" parent="1" vertex="1">
          <mxGeometry x="-280" y="265" width="60" height="30" as="geometry" />
        </mxCell>
        <mxCell id="gsrv9x8wLsgkJ8-gVyWv-7" value="apellidos" style="text;html=1;align=center;verticalAlign=middle;resizable=0;points=[];autosize=1;strokeColor=none;fillColor=none;" parent="1" vertex="1">
          <mxGeometry x="-290" y="295" width="70" height="30" as="geometry" />
        </mxCell>
        <mxCell id="gsrv9x8wLsgkJ8-gVyWv-10" value="email" style="text;html=1;align=center;verticalAlign=middle;resizable=0;points=[];autosize=1;strokeColor=none;fillColor=none;" parent="1" vertex="1">
          <mxGeometry x="-270" y="325" width="50" height="30" as="geometry" />
        </mxCell>
        <mxCell id="gsrv9x8wLsgkJ8-gVyWv-12" value="password" style="text;html=1;align=center;verticalAlign=middle;resizable=0;points=[];autosize=1;strokeColor=none;fillColor=none;" parent="1" vertex="1">
          <mxGeometry x="-290" y="355" width="70" height="30" as="geometry" />
        </mxCell>
        <mxCell id="gsrv9x8wLsgkJ8-gVyWv-13" value="perfil" style="text;html=1;align=center;verticalAlign=middle;resizable=0;points=[];autosize=1;strokeColor=none;fillColor=none;" parent="1" vertex="1">
          <mxGeometry x="-270" y="385" width="50" height="30" as="geometry" />
        </mxCell>
        <mxCell id="gsrv9x8wLsgkJ8-gVyWv-15" value="activo" style="text;html=1;align=center;verticalAlign=middle;resizable=0;points=[];autosize=1;strokeColor=none;fillColor=none;" parent="1" vertex="1">
          <mxGeometry x="-270" y="415" width="50" height="30" as="geometry" />
        </mxCell>
        <mxCell id="gsrv9x8wLsgkJ8-gVyWv-16" value="es jefe" style="text;html=1;align=center;verticalAlign=middle;resizable=0;points=[];autosize=1;strokeColor=none;fillColor=none;" parent="1" vertex="1">
          <mxGeometry x="-200" y="445" width="60" height="30" as="geometry" />
        </mxCell>
        <mxCell id="OAtFKCcMEsRw6Mtl-Hrg-1" value="id" style="text;html=1;align=center;verticalAlign=middle;resizable=0;points=[];autosize=1;strokeColor=none;fillColor=none;" parent="1" vertex="1">
          <mxGeometry x="-203" y="545" width="30" height="30" as="geometry" />
        </mxCell>
        <mxCell id="OAtFKCcMEsRw6Mtl-Hrg-2" value="codigo" style="text;html=1;align=center;verticalAlign=middle;resizable=0;points=[];autosize=1;strokeColor=none;fillColor=none;" parent="1" vertex="1">
          <mxGeometry x="-233" y="575" width="60" height="30" as="geometry" />
        </mxCell>
        <mxCell id="OAtFKCcMEsRw6Mtl-Hrg-5" value="nombre" style="text;html=1;align=center;verticalAlign=middle;resizable=0;points=[];autosize=1;strokeColor=none;fillColor=none;" parent="1" vertex="1">
          <mxGeometry x="-233" y="605" width="60" height="30" as="geometry" />
        </mxCell>
        <mxCell id="OAtFKCcMEsRw6Mtl-Hrg-6" value="id" style="text;html=1;align=center;verticalAlign=middle;resizable=0;points=[];autosize=1;strokeColor=none;fillColor=none;" parent="1" vertex="1">
          <mxGeometry x="380" y="525" width="30" height="30" as="geometry" />
        </mxCell>
        <mxCell id="OAtFKCcMEsRw6Mtl-Hrg-8" value="codigo" style="text;html=1;align=center;verticalAlign=middle;resizable=0;points=[];autosize=1;strokeColor=none;fillColor=none;" parent="1" vertex="1">
          <mxGeometry x="350" y="548.5" width="60" height="30" as="geometry" />
        </mxCell>
        <mxCell id="OAtFKCcMEsRw6Mtl-Hrg-9" value="num_alumnos" style="text;html=1;align=center;verticalAlign=middle;resizable=0;points=[];autosize=1;strokeColor=none;fillColor=none;" parent="1" vertex="1">
          <mxGeometry x="310" y="574" width="100" height="30" as="geometry" />
        </mxCell>
        <mxCell id="OAtFKCcMEsRw6Mtl-Hrg-10" value="activo" style="text;html=1;align=center;verticalAlign=middle;resizable=0;points=[];autosize=1;strokeColor=none;fillColor=none;" parent="1" vertex="1">
          <mxGeometry x="360" y="599" width="50" height="30" as="geometry" />
        </mxCell>
        <mxCell id="OAtFKCcMEsRw6Mtl-Hrg-12" style="edgeStyle=none;rounded=0;orthogonalLoop=1;jettySize=auto;html=1;exitX=1;exitY=0.5;exitDx=0;exitDy=0;shadow=0;labelBackgroundColor=#0A0A0A;startFill=0;endArrow=oval;endFill=0;endSize=12;dashed=1;" parent="1" source="3gWHudCBHlOKcS4b1Oc7-64" edge="1">
          <mxGeometry relative="1" as="geometry">
            <mxPoint x="970" y="600" as="sourcePoint" />
            <mxPoint x="1030" y="660" as="targetPoint" />
          </mxGeometry>
        </mxCell>
        <mxCell id="OAtFKCcMEsRw6Mtl-Hrg-14" value="id" style="text;html=1;align=center;verticalAlign=middle;resizable=0;points=[];autosize=1;strokeColor=none;fillColor=none;" parent="1" vertex="1">
          <mxGeometry x="1030" y="495" width="30" height="30" as="geometry" />
        </mxCell>
        <mxCell id="OAtFKCcMEsRw6Mtl-Hrg-15" value="codigo" style="text;html=1;align=center;verticalAlign=middle;resizable=0;points=[];autosize=1;strokeColor=none;fillColor=none;" parent="1" vertex="1">
          <mxGeometry x="1030" y="524" width="60" height="30" as="geometry" />
        </mxCell>
        <mxCell id="OAtFKCcMEsRw6Mtl-Hrg-16" value="descripcion" style="text;html=1;align=center;verticalAlign=middle;resizable=0;points=[];autosize=1;strokeColor=none;fillColor=none;" parent="1" vertex="1">
          <mxGeometry x="1030" y="644.5" width="80" height="30" as="geometry" />
        </mxCell>
        <mxCell id="OAtFKCcMEsRw6Mtl-Hrg-17" value="etapa" style="text;html=1;align=center;verticalAlign=middle;resizable=0;points=[];autosize=1;strokeColor=none;fillColor=none;" parent="1" vertex="1">
          <mxGeometry x="1030" y="554" width="50" height="30" as="geometry" />
        </mxCell>
        <mxCell id="OAtFKCcMEsRw6Mtl-Hrg-18" value="num_alumnos" style="text;html=1;align=center;verticalAlign=middle;resizable=0;points=[];autosize=1;strokeColor=none;fillColor=none;" parent="1" vertex="1">
          <mxGeometry x="1030" y="583.5" width="100" height="30" as="geometry" />
        </mxCell>
        <mxCell id="OAtFKCcMEsRw6Mtl-Hrg-19" value="activo" style="text;html=1;align=center;verticalAlign=middle;resizable=0;points=[];autosize=1;strokeColor=none;fillColor=none;" parent="1" vertex="1">
          <mxGeometry x="1030" y="613.5" width="50" height="30" as="geometry" />
        </mxCell>
        <mxCell id="OAtFKCcMEsRw6Mtl-Hrg-23" value="ALOJAMIENTO" style="whiteSpace=wrap;html=1;fontFamily=Helvetica;fontSize=11;fontColor=default;" parent="1" vertex="1">
          <mxGeometry x="180" y="26" width="120" height="60" as="geometry" />
        </mxCell>
        <mxCell id="OAtFKCcMEsRw6Mtl-Hrg-26" value="" style="edgeStyle=orthogonalEdgeStyle;rounded=0;orthogonalLoop=1;jettySize=auto;html=1;endArrow=none;endFill=0;exitX=0.5;exitY=0;exitDx=0;exitDy=0;entryX=1;entryY=0.5;entryDx=0;entryDy=0;" parent="1" source="OAtFKCcMEsRw6Mtl-Hrg-24" target="OAtFKCcMEsRw6Mtl-Hrg-23" edge="1">
          <mxGeometry relative="1" as="geometry">
            <mxPoint x="250" y="111" as="sourcePoint" />
          </mxGeometry>
        </mxCell>
        <mxCell id="OAtFKCcMEsRw6Mtl-Hrg-24" value="utiliza" style="rhombus;whiteSpace=wrap;html=1;fontFamily=Helvetica;fontSize=11;fontColor=default;" parent="1" vertex="1">
          <mxGeometry x="440" y="155" width="80" height="40" as="geometry" />
        </mxCell>
        <mxCell id="OAtFKCcMEsRw6Mtl-Hrg-27" style="edgeStyle=none;rounded=0;orthogonalLoop=1;jettySize=auto;html=1;shadow=0;labelBackgroundColor=#0A0A0A;startFill=0;endArrow=oval;endFill=1;endSize=12;exitX=0;exitY=0.5;exitDx=0;exitDy=0;" parent="1" source="OAtFKCcMEsRw6Mtl-Hrg-23" edge="1">
          <mxGeometry relative="1" as="geometry">
            <mxPoint x="170" y="30" as="sourcePoint" />
            <mxPoint x="120" y="20" as="targetPoint" />
          </mxGeometry>
        </mxCell>
        <mxCell id="OAtFKCcMEsRw6Mtl-Hrg-28" style="edgeStyle=none;rounded=0;orthogonalLoop=1;jettySize=auto;html=1;shadow=0;labelBackgroundColor=#0A0A0A;startFill=0;endArrow=oval;endFill=0;endSize=12;exitX=0;exitY=0.5;exitDx=0;exitDy=0;" parent="1" source="OAtFKCcMEsRw6Mtl-Hrg-23" edge="1">
          <mxGeometry relative="1" as="geometry">
            <mxPoint x="180" y="66" as="sourcePoint" />
            <mxPoint x="120" y="45" as="targetPoint" />
          </mxGeometry>
        </mxCell>
        <mxCell id="OAtFKCcMEsRw6Mtl-Hrg-30" style="edgeStyle=none;rounded=0;orthogonalLoop=1;jettySize=auto;html=1;exitX=0;exitY=0.5;exitDx=0;exitDy=0;shadow=0;labelBackgroundColor=#0A0A0A;startFill=0;endArrow=oval;endFill=0;endSize=12;" parent="1" source="OAtFKCcMEsRw6Mtl-Hrg-23" edge="1">
          <mxGeometry relative="1" as="geometry">
            <mxPoint x="177" y="45" as="sourcePoint" />
            <mxPoint x="120" y="70" as="targetPoint" />
          </mxGeometry>
        </mxCell>
        <mxCell id="OAtFKCcMEsRw6Mtl-Hrg-32" value="id" style="text;html=1;align=center;verticalAlign=middle;resizable=0;points=[];autosize=1;strokeColor=none;fillColor=none;" parent="1" vertex="1">
          <mxGeometry x="90" y="5" width="30" height="30" as="geometry" />
        </mxCell>
        <mxCell id="OAtFKCcMEsRw6Mtl-Hrg-33" value="nombre" style="text;html=1;align=center;verticalAlign=middle;resizable=0;points=[];autosize=1;strokeColor=none;fillColor=none;" parent="1" vertex="1">
          <mxGeometry x="60" y="29" width="60" height="30" as="geometry" />
        </mxCell>
        <mxCell id="OAtFKCcMEsRw6Mtl-Hrg-34" value="importe" style="text;html=1;align=center;verticalAlign=middle;resizable=0;points=[];autosize=1;strokeColor=none;fillColor=none;" parent="1" vertex="1">
          <mxGeometry x="60" y="54" width="60" height="30" as="geometry" />
        </mxCell>
        <mxCell id="OAtFKCcMEsRw6Mtl-Hrg-40" style="edgeStyle=orthogonalEdgeStyle;rounded=0;orthogonalLoop=1;jettySize=auto;html=1;endArrow=none;endFill=0;startArrow=none;startFill=0;" parent="1" source="OAtFKCcMEsRw6Mtl-Hrg-36" edge="1">
          <mxGeometry relative="1" as="geometry">
            <mxPoint x="600" y="-500.0000000000002" as="targetPoint" />
          </mxGeometry>
        </mxCell>
        <mxCell id="hzj7ClhZh16P4XhyqnI0-38" style="edgeStyle=orthogonalEdgeStyle;rounded=0;orthogonalLoop=1;jettySize=auto;html=1;entryX=0.5;entryY=0;entryDx=0;entryDy=0;endArrow=none;endFill=0;" parent="1" source="OAtFKCcMEsRw6Mtl-Hrg-36" target="OAtFKCcMEsRw6Mtl-Hrg-37" edge="1">
          <mxGeometry relative="1" as="geometry">
            <mxPoint x="602" y="-44" as="targetPoint" />
          </mxGeometry>
        </mxCell>
        <mxCell id="OAtFKCcMEsRw6Mtl-Hrg-36" value="A_APROBADA" style="whiteSpace=wrap;html=1;fontFamily=Helvetica;fontSize=11;fontColor=default;" parent="1" vertex="1">
          <mxGeometry x="540" y="-360" width="120" height="60" as="geometry" />
        </mxCell>
        <mxCell id="hzj7ClhZh16P4XhyqnI0-36" style="edgeStyle=orthogonalEdgeStyle;rounded=0;orthogonalLoop=1;jettySize=auto;html=1;entryX=1;entryY=0;entryDx=0;entryDy=0;endArrow=none;endFill=0;" parent="1" source="OAtFKCcMEsRw6Mtl-Hrg-37" target="3gWHudCBHlOKcS4b1Oc7-80" edge="1">
          <mxGeometry relative="1" as="geometry">
            <Array as="points">
              <mxPoint x="600" y="86" />
              <mxPoint x="600" y="86" />
            </Array>
          </mxGeometry>
        </mxCell>
        <mxCell id="OAtFKCcMEsRw6Mtl-Hrg-37" value="copia" style="rhombus;whiteSpace=wrap;html=1;fontFamily=Helvetica;fontSize=11;fontColor=default;" parent="1" vertex="1">
          <mxGeometry x="560" y="-40" width="80" height="40" as="geometry" />
        </mxCell>
        <mxCell id="OAtFKCcMEsRw6Mtl-Hrg-43" style="edgeStyle=orthogonalEdgeStyle;rounded=0;orthogonalLoop=1;jettySize=auto;html=1;exitX=1;exitY=0.5;exitDx=0;exitDy=0;entryX=0;entryY=0.5;entryDx=0;entryDy=0;endArrow=none;endFill=0;" parent="1" source="OAtFKCcMEsRw6Mtl-Hrg-41" target="OAtFKCcMEsRw6Mtl-Hrg-42" edge="1">
          <mxGeometry relative="1" as="geometry" />
        </mxCell>
        <mxCell id="OAtFKCcMEsRw6Mtl-Hrg-41" value="guarda" style="rhombus;whiteSpace=wrap;html=1;fontFamily=Helvetica;fontSize=11;fontColor=default;" parent="1" vertex="1">
          <mxGeometry x="560" y="-520" width="80" height="40" as="geometry" />
        </mxCell>
        <mxCell id="OAtFKCcMEsRw6Mtl-Hrg-42" value="IMAGEN" style="whiteSpace=wrap;html=1;fontFamily=Helvetica;fontSize=11;fontColor=default;" parent="1" vertex="1">
          <mxGeometry x="760" y="-530" width="120" height="60" as="geometry" />
        </mxCell>
        <mxCell id="OAtFKCcMEsRw6Mtl-Hrg-52" style="edgeStyle=none;rounded=0;orthogonalLoop=1;jettySize=auto;html=1;shadow=0;labelBackgroundColor=#0A0A0A;startFill=0;endArrow=oval;endFill=1;endSize=12;exitX=1;exitY=0.5;exitDx=0;exitDy=0;" parent="1" source="OAtFKCcMEsRw6Mtl-Hrg-42" edge="1">
          <mxGeometry relative="1" as="geometry">
            <mxPoint x="880" y="-495" as="sourcePoint" />
            <mxPoint x="943" y="-529" as="targetPoint" />
          </mxGeometry>
        </mxCell>
        <mxCell id="OAtFKCcMEsRw6Mtl-Hrg-53" style="edgeStyle=none;rounded=0;orthogonalLoop=1;jettySize=auto;html=1;shadow=0;labelBackgroundColor=#0A0A0A;startFill=0;endArrow=oval;endFill=0;endSize=12;exitX=1;exitY=0.5;exitDx=0;exitDy=0;" parent="1" source="OAtFKCcMEsRw6Mtl-Hrg-42" edge="1">
          <mxGeometry relative="1" as="geometry">
            <mxPoint x="455" y="-657" as="sourcePoint" />
            <mxPoint x="943" y="-500" as="targetPoint" />
          </mxGeometry>
        </mxCell>
        <mxCell id="OAtFKCcMEsRw6Mtl-Hrg-54" style="edgeStyle=none;rounded=0;orthogonalLoop=1;jettySize=auto;html=1;exitX=1;exitY=0.5;exitDx=0;exitDy=0;shadow=0;labelBackgroundColor=#0A0A0A;startFill=0;endArrow=oval;endFill=0;endSize=12;dashed=1;" parent="1" source="OAtFKCcMEsRw6Mtl-Hrg-42" edge="1">
          <mxGeometry relative="1" as="geometry">
            <mxPoint x="880" y="-510" as="sourcePoint" />
            <mxPoint x="943" y="-474" as="targetPoint" />
          </mxGeometry>
        </mxCell>
        <mxCell id="OAtFKCcMEsRw6Mtl-Hrg-60" value="id" style="text;html=1;align=center;verticalAlign=middle;resizable=0;points=[];autosize=1;strokeColor=none;fillColor=none;" parent="1" vertex="1">
          <mxGeometry x="943" y="-545" width="30" height="30" as="geometry" />
        </mxCell>
        <mxCell id="OAtFKCcMEsRw6Mtl-Hrg-61" value="url" style="text;html=1;align=center;verticalAlign=middle;resizable=0;points=[];autosize=1;strokeColor=none;fillColor=none;" parent="1" vertex="1">
          <mxGeometry x="943" y="-516" width="40" height="30" as="geometry" />
        </mxCell>
        <mxCell id="OAtFKCcMEsRw6Mtl-Hrg-62" value="descripcion" style="text;html=1;align=center;verticalAlign=middle;resizable=0;points=[];autosize=1;strokeColor=none;fillColor=none;" parent="1" vertex="1">
          <mxGeometry x="943" y="-489" width="80" height="30" as="geometry" />
        </mxCell>
        <mxCell id="hzj7ClhZh16P4XhyqnI0-4" style="edgeStyle=none;rounded=0;orthogonalLoop=1;jettySize=auto;html=1;shadow=0;labelBackgroundColor=#0A0A0A;startFill=0;endArrow=oval;endFill=0;endSize=12;exitX=0;exitY=0.5;exitDx=0;exitDy=0;" parent="1" source="OAtFKCcMEsRw6Mtl-Hrg-36" edge="1">
          <mxGeometry relative="1" as="geometry">
            <mxPoint x="490" y="-360" as="sourcePoint" />
            <mxPoint x="400" y="-430" as="targetPoint" />
          </mxGeometry>
        </mxCell>
        <mxCell id="hzj7ClhZh16P4XhyqnI0-5" style="edgeStyle=none;rounded=0;orthogonalLoop=1;jettySize=auto;html=1;shadow=0;labelBackgroundColor=#0A0A0A;startFill=0;endArrow=oval;endFill=1;endSize=12;exitX=0;exitY=0.5;exitDx=0;exitDy=0;" parent="1" source="OAtFKCcMEsRw6Mtl-Hrg-36" edge="1">
          <mxGeometry relative="1" as="geometry">
            <mxPoint x="520" y="-360" as="sourcePoint" />
            <mxPoint x="400" y="-455" as="targetPoint" />
          </mxGeometry>
        </mxCell>
        <mxCell id="hzj7ClhZh16P4XhyqnI0-6" style="edgeStyle=none;rounded=0;orthogonalLoop=1;jettySize=auto;html=1;shadow=0;labelBackgroundColor=#0A0A0A;startFill=0;endArrow=oval;endFill=0;endSize=12;exitX=0;exitY=0.5;exitDx=0;exitDy=0;" parent="1" source="OAtFKCcMEsRw6Mtl-Hrg-36" edge="1">
          <mxGeometry relative="1" as="geometry">
            <mxPoint x="510" y="-330" as="sourcePoint" />
            <mxPoint x="400" y="-380" as="targetPoint" />
          </mxGeometry>
        </mxCell>
        <mxCell id="hzj7ClhZh16P4XhyqnI0-7" style="edgeStyle=none;rounded=0;orthogonalLoop=1;jettySize=auto;html=1;shadow=0;labelBackgroundColor=#0A0A0A;startFill=0;endArrow=oval;endFill=0;endSize=12;exitX=0;exitY=0.5;exitDx=0;exitDy=0;dashed=1;" parent="1" source="OAtFKCcMEsRw6Mtl-Hrg-36" edge="1">
          <mxGeometry relative="1" as="geometry">
            <mxPoint x="510" y="-340" as="sourcePoint" />
            <mxPoint x="400" y="-405.5" as="targetPoint" />
          </mxGeometry>
        </mxCell>
        <mxCell id="hzj7ClhZh16P4XhyqnI0-8" style="edgeStyle=none;rounded=0;orthogonalLoop=1;jettySize=auto;html=1;shadow=0;labelBackgroundColor=#0A0A0A;startFill=0;endArrow=oval;endFill=0;endSize=12;exitX=0;exitY=0.5;exitDx=0;exitDy=0;" parent="1" source="OAtFKCcMEsRw6Mtl-Hrg-36" edge="1">
          <mxGeometry relative="1" as="geometry">
            <mxPoint x="520" y="-320" as="sourcePoint" />
            <mxPoint x="400" y="-355" as="targetPoint" />
          </mxGeometry>
        </mxCell>
        <mxCell id="hzj7ClhZh16P4XhyqnI0-9" style="edgeStyle=none;rounded=0;orthogonalLoop=1;jettySize=auto;html=1;shadow=0;labelBackgroundColor=#0A0A0A;startFill=0;endArrow=oval;endFill=0;endSize=12;exitX=0;exitY=0.5;exitDx=0;exitDy=0;" parent="1" source="OAtFKCcMEsRw6Mtl-Hrg-36" edge="1">
          <mxGeometry relative="1" as="geometry">
            <mxPoint x="520" y="-310" as="sourcePoint" />
            <mxPoint x="400" y="-330" as="targetPoint" />
          </mxGeometry>
        </mxCell>
        <mxCell id="hzj7ClhZh16P4XhyqnI0-10" style="edgeStyle=none;rounded=0;orthogonalLoop=1;jettySize=auto;html=1;shadow=0;labelBackgroundColor=#0A0A0A;startFill=0;endArrow=oval;endFill=0;endSize=12;exitX=0;exitY=0.5;exitDx=0;exitDy=0;dashed=1;" parent="1" source="OAtFKCcMEsRw6Mtl-Hrg-36" edge="1">
          <mxGeometry relative="1" as="geometry">
            <mxPoint x="540" y="-423" as="sourcePoint" />
            <mxPoint x="400" y="-305" as="targetPoint" />
          </mxGeometry>
        </mxCell>
        <mxCell id="hzj7ClhZh16P4XhyqnI0-11" style="edgeStyle=none;rounded=0;orthogonalLoop=1;jettySize=auto;html=1;shadow=0;labelBackgroundColor=#0A0A0A;startFill=0;endArrow=oval;endFill=0;endSize=12;exitX=0;exitY=0.5;exitDx=0;exitDy=0;" parent="1" source="OAtFKCcMEsRw6Mtl-Hrg-36" edge="1">
          <mxGeometry relative="1" as="geometry">
            <mxPoint x="540" y="-416" as="sourcePoint" />
            <mxPoint x="400" y="-280" as="targetPoint" />
          </mxGeometry>
        </mxCell>
        <mxCell id="hzj7ClhZh16P4XhyqnI0-12" style="edgeStyle=none;rounded=0;orthogonalLoop=1;jettySize=auto;html=1;shadow=0;labelBackgroundColor=#0A0A0A;startFill=0;endArrow=oval;endFill=0;endSize=12;exitX=0;exitY=0.5;exitDx=0;exitDy=0;" parent="1" source="OAtFKCcMEsRw6Mtl-Hrg-36" edge="1">
          <mxGeometry relative="1" as="geometry">
            <mxPoint x="520" y="-348" as="sourcePoint" />
            <mxPoint x="400" y="-255" as="targetPoint" />
          </mxGeometry>
        </mxCell>
        <mxCell id="hzj7ClhZh16P4XhyqnI0-13" style="edgeStyle=none;rounded=0;orthogonalLoop=1;jettySize=auto;html=1;shadow=0;labelBackgroundColor=#0A0A0A;startFill=0;endArrow=oval;endFill=0;endSize=12;exitX=0;exitY=0.5;exitDx=0;exitDy=0;" parent="1" source="OAtFKCcMEsRw6Mtl-Hrg-36" edge="1">
          <mxGeometry relative="1" as="geometry">
            <mxPoint x="540" y="-418" as="sourcePoint" />
            <mxPoint x="400" y="-230" as="targetPoint" />
            <Array as="points">
              <mxPoint x="400" y="-230" />
            </Array>
          </mxGeometry>
        </mxCell>
        <mxCell id="hzj7ClhZh16P4XhyqnI0-14" style="edgeStyle=none;rounded=0;orthogonalLoop=1;jettySize=auto;html=1;shadow=0;labelBackgroundColor=#0A0A0A;startFill=0;endArrow=oval;endFill=0;endSize=12;exitX=0;exitY=0.5;exitDx=0;exitDy=0;" parent="1" source="OAtFKCcMEsRw6Mtl-Hrg-36" edge="1">
          <mxGeometry relative="1" as="geometry">
            <mxPoint x="497.75" y="-245" as="sourcePoint" />
            <mxPoint x="400.25" y="-205" as="targetPoint" />
          </mxGeometry>
        </mxCell>
        <mxCell id="hzj7ClhZh16P4XhyqnI0-19" value="id" style="text;html=1;align=center;verticalAlign=middle;resizable=0;points=[];autosize=1;strokeColor=none;fillColor=none;" parent="1" vertex="1">
          <mxGeometry x="370" y="-470" width="30" height="30" as="geometry" />
        </mxCell>
        <mxCell id="hzj7ClhZh16P4XhyqnI0-20" value="titulo" style="text;html=1;align=center;verticalAlign=middle;resizable=0;points=[];autosize=1;strokeColor=none;fillColor=none;" parent="1" vertex="1">
          <mxGeometry x="350" y="-446" width="50" height="30" as="geometry" />
        </mxCell>
        <mxCell id="hzj7ClhZh16P4XhyqnI0-21" value="comentario_actividad" style="text;html=1;align=center;verticalAlign=middle;resizable=0;points=[];autosize=1;strokeColor=none;fillColor=none;" parent="1" vertex="1">
          <mxGeometry x="260" y="-421" width="140" height="30" as="geometry" />
        </mxCell>
        <mxCell id="hzj7ClhZh16P4XhyqnI0-22" value="tipo" style="text;html=1;align=center;verticalAlign=middle;resizable=0;points=[];autosize=1;strokeColor=none;fillColor=none;" parent="1" vertex="1">
          <mxGeometry x="360" y="-396" width="40" height="30" as="geometry" />
        </mxCell>
        <mxCell id="hzj7ClhZh16P4XhyqnI0-23" value="programada" style="text;html=1;align=center;verticalAlign=middle;resizable=0;points=[];autosize=1;strokeColor=none;fillColor=none;" parent="1" vertex="1">
          <mxGeometry x="310" y="-371" width="90" height="30" as="geometry" />
        </mxCell>
        <mxCell id="hzj7ClhZh16P4XhyqnI0-24" value="estado" style="text;html=1;align=center;verticalAlign=middle;resizable=0;points=[];autosize=1;strokeColor=none;fillColor=none;" parent="1" vertex="1">
          <mxGeometry x="340" y="-346" width="60" height="30" as="geometry" />
        </mxCell>
        <mxCell id="hzj7ClhZh16P4XhyqnI0-26" value="comentario_estado" style="text;html=1;align=center;verticalAlign=middle;resizable=0;points=[];autosize=1;strokeColor=none;fillColor=none;" parent="1" vertex="1">
          <mxGeometry x="270" y="-321" width="130" height="30" as="geometry" />
        </mxCell>
        <mxCell id="hzj7ClhZh16P4XhyqnI0-27" value="transporte" style="text;html=1;align=center;verticalAlign=middle;resizable=0;points=[];autosize=1;strokeColor=none;fillColor=none;" parent="1" vertex="1">
          <mxGeometry x="320" y="-296" width="80" height="30" as="geometry" />
        </mxCell>
        <mxCell id="hzj7ClhZh16P4XhyqnI0-29" value="alojamiento" style="text;html=1;align=center;verticalAlign=middle;resizable=0;points=[];autosize=1;strokeColor=none;fillColor=none;" parent="1" vertex="1">
          <mxGeometry x="320" y="-271" width="80" height="30" as="geometry" />
        </mxCell>
        <mxCell id="hzj7ClhZh16P4XhyqnI0-31" value="inicio" style="text;html=1;align=center;verticalAlign=middle;resizable=0;points=[];autosize=1;strokeColor=none;fillColor=none;" parent="1" vertex="1">
          <mxGeometry x="350" y="-246" width="50" height="30" as="geometry" />
        </mxCell>
        <mxCell id="hzj7ClhZh16P4XhyqnI0-32" value="fin" style="text;html=1;align=center;verticalAlign=middle;resizable=0;points=[];autosize=1;strokeColor=none;fillColor=none;" parent="1" vertex="1">
          <mxGeometry x="360" y="-221" width="40" height="30" as="geometry" />
        </mxCell>
        <mxCell id="hzj7ClhZh16P4XhyqnI0-40" style="edgeStyle=none;rounded=0;orthogonalLoop=1;jettySize=auto;html=1;shadow=0;labelBackgroundColor=#0A0A0A;startFill=0;endArrow=oval;endFill=0;endSize=12;exitX=1;exitY=0.5;exitDx=0;exitDy=0;" parent="1" source="3gWHudCBHlOKcS4b1Oc7-80" edge="1">
          <mxGeometry relative="1" as="geometry">
            <mxPoint x="642" y="329.89" as="sourcePoint" />
            <mxPoint x="760" y="329.89" as="targetPoint" />
          </mxGeometry>
        </mxCell>
        <mxCell id="hzj7ClhZh16P4XhyqnI0-42" style="edgeStyle=none;rounded=0;orthogonalLoop=1;jettySize=auto;html=1;shadow=0;labelBackgroundColor=#0A0A0A;startFill=0;endArrow=oval;endFill=0;endSize=12;exitX=1;exitY=0.5;exitDx=0;exitDy=0;" parent="1" source="3gWHudCBHlOKcS4b1Oc7-80" edge="1">
          <mxGeometry relative="1" as="geometry">
            <mxPoint x="600" y="305.11" as="sourcePoint" />
            <mxPoint x="760" y="305" as="targetPoint" />
          </mxGeometry>
        </mxCell>
        <mxCell id="hzj7ClhZh16P4XhyqnI0-43" style="edgeStyle=none;rounded=0;orthogonalLoop=1;jettySize=auto;html=1;shadow=0;labelBackgroundColor=#0A0A0A;startFill=0;endArrow=oval;endFill=0;endSize=12;exitX=1;exitY=0.5;exitDx=0;exitDy=0;" parent="1" source="3gWHudCBHlOKcS4b1Oc7-80" edge="1">
          <mxGeometry relative="1" as="geometry">
            <mxPoint x="600" y="305" as="sourcePoint" />
            <mxPoint x="760" y="280" as="targetPoint" />
          </mxGeometry>
        </mxCell>
        <mxCell id="hzj7ClhZh16P4XhyqnI0-44" style="edgeStyle=none;rounded=0;orthogonalLoop=1;jettySize=auto;html=1;shadow=0;labelBackgroundColor=#0A0A0A;startFill=0;endArrow=oval;endFill=0;endSize=12;exitX=1;exitY=0.5;exitDx=0;exitDy=0;" parent="1" source="3gWHudCBHlOKcS4b1Oc7-80" edge="1">
          <mxGeometry relative="1" as="geometry">
            <mxPoint x="600" y="305" as="sourcePoint" />
            <mxPoint x="760" y="255" as="targetPoint" />
          </mxGeometry>
        </mxCell>
        <mxCell id="hzj7ClhZh16P4XhyqnI0-45" style="edgeStyle=none;rounded=0;orthogonalLoop=1;jettySize=auto;html=1;shadow=0;labelBackgroundColor=#0A0A0A;startFill=0;endArrow=oval;endFill=0;endSize=12;exitX=1;exitY=0.5;exitDx=0;exitDy=0;dashed=1;" parent="1" source="3gWHudCBHlOKcS4b1Oc7-80" edge="1">
          <mxGeometry relative="1" as="geometry">
            <mxPoint x="600" y="280" as="sourcePoint" />
            <mxPoint x="760" y="230" as="targetPoint" />
          </mxGeometry>
        </mxCell>
        <mxCell id="hzj7ClhZh16P4XhyqnI0-46" style="edgeStyle=none;rounded=0;orthogonalLoop=1;jettySize=auto;html=1;shadow=0;labelBackgroundColor=#0A0A0A;startFill=0;endArrow=oval;endFill=0;endSize=12;exitX=1;exitY=0.5;exitDx=0;exitDy=0;" parent="1" source="3gWHudCBHlOKcS4b1Oc7-80" edge="1">
          <mxGeometry relative="1" as="geometry">
            <mxPoint x="600" y="255" as="sourcePoint" />
            <mxPoint x="760" y="205" as="targetPoint" />
          </mxGeometry>
        </mxCell>
        <mxCell id="hzj7ClhZh16P4XhyqnI0-47" style="edgeStyle=none;rounded=0;orthogonalLoop=1;jettySize=auto;html=1;shadow=0;labelBackgroundColor=#0A0A0A;startFill=0;endArrow=oval;endFill=0;endSize=12;exitX=1;exitY=0.5;exitDx=0;exitDy=0;" parent="1" source="3gWHudCBHlOKcS4b1Oc7-80" edge="1">
          <mxGeometry relative="1" as="geometry">
            <mxPoint x="600" y="230" as="sourcePoint" />
            <mxPoint x="760" y="180" as="targetPoint" />
          </mxGeometry>
        </mxCell>
        <mxCell id="hzj7ClhZh16P4XhyqnI0-48" style="edgeStyle=none;rounded=0;orthogonalLoop=1;jettySize=auto;html=1;shadow=0;labelBackgroundColor=#0A0A0A;startFill=0;endArrow=oval;endFill=0;endSize=12;exitX=1;exitY=0.5;exitDx=0;exitDy=0;" parent="1" source="3gWHudCBHlOKcS4b1Oc7-80" edge="1">
          <mxGeometry relative="1" as="geometry">
            <mxPoint x="600" y="205" as="sourcePoint" />
            <mxPoint x="760" y="155" as="targetPoint" />
          </mxGeometry>
        </mxCell>
        <mxCell id="hzj7ClhZh16P4XhyqnI0-49" style="edgeStyle=none;rounded=0;orthogonalLoop=1;jettySize=auto;html=1;shadow=0;labelBackgroundColor=#0A0A0A;startFill=0;endArrow=oval;endFill=0;endSize=12;exitX=1;exitY=0.5;exitDx=0;exitDy=0;dashed=1;" parent="1" source="3gWHudCBHlOKcS4b1Oc7-80" edge="1">
          <mxGeometry relative="1" as="geometry">
            <mxPoint x="600" y="180" as="sourcePoint" />
            <mxPoint x="760" y="130" as="targetPoint" />
          </mxGeometry>
        </mxCell>
        <mxCell id="hzj7ClhZh16P4XhyqnI0-50" style="edgeStyle=none;rounded=0;orthogonalLoop=1;jettySize=auto;html=1;shadow=0;labelBackgroundColor=#0A0A0A;startFill=0;endArrow=oval;endFill=0;endSize=12;exitX=1;exitY=0.5;exitDx=0;exitDy=0;" parent="1" source="3gWHudCBHlOKcS4b1Oc7-80" edge="1">
          <mxGeometry relative="1" as="geometry">
            <mxPoint x="600" y="155" as="sourcePoint" />
            <mxPoint x="760" y="105" as="targetPoint" />
          </mxGeometry>
        </mxCell>
        <mxCell id="hzj7ClhZh16P4XhyqnI0-51" style="edgeStyle=none;rounded=0;orthogonalLoop=1;jettySize=auto;html=1;shadow=0;labelBackgroundColor=#0A0A0A;startFill=0;endArrow=oval;endFill=1;endSize=12;exitX=1;exitY=0.5;exitDx=0;exitDy=0;" parent="1" source="3gWHudCBHlOKcS4b1Oc7-80" edge="1">
          <mxGeometry relative="1" as="geometry">
            <mxPoint x="600" y="130" as="sourcePoint" />
            <mxPoint x="760" y="80" as="targetPoint" />
          </mxGeometry>
        </mxCell>
        <mxCell id="hzj7ClhZh16P4XhyqnI0-55" value="id" style="text;html=1;align=center;verticalAlign=middle;resizable=0;points=[];autosize=1;strokeColor=none;fillColor=none;" parent="1" vertex="1">
          <mxGeometry x="760" y="64" width="30" height="30" as="geometry" />
        </mxCell>
        <mxCell id="hzj7ClhZh16P4XhyqnI0-56" value="titulo" style="text;html=1;align=center;verticalAlign=middle;resizable=0;points=[];autosize=1;strokeColor=none;fillColor=none;" parent="1" vertex="1">
          <mxGeometry x="760" y="90" width="50" height="30" as="geometry" />
        </mxCell>
        <mxCell id="hzj7ClhZh16P4XhyqnI0-57" value="comentario_actividad" style="text;html=1;align=center;verticalAlign=middle;resizable=0;points=[];autosize=1;strokeColor=none;fillColor=none;" parent="1" vertex="1">
          <mxGeometry x="760" y="114" width="140" height="30" as="geometry" />
        </mxCell>
        <mxCell id="hzj7ClhZh16P4XhyqnI0-58" value="tipo" style="text;html=1;align=center;verticalAlign=middle;resizable=0;points=[];autosize=1;strokeColor=none;fillColor=none;" parent="1" vertex="1">
          <mxGeometry x="760" y="140" width="40" height="30" as="geometry" />
        </mxCell>
        <mxCell id="hzj7ClhZh16P4XhyqnI0-59" value="programada" style="text;html=1;align=center;verticalAlign=middle;resizable=0;points=[];autosize=1;strokeColor=none;fillColor=none;" parent="1" vertex="1">
          <mxGeometry x="760" y="164" width="90" height="30" as="geometry" />
        </mxCell>
        <mxCell id="hzj7ClhZh16P4XhyqnI0-60" value="estado" style="text;html=1;align=center;verticalAlign=middle;resizable=0;points=[];autosize=1;strokeColor=none;fillColor=none;" parent="1" vertex="1">
          <mxGeometry x="760" y="189" width="60" height="30" as="geometry" />
        </mxCell>
        <mxCell id="hzj7ClhZh16P4XhyqnI0-61" value="comentario_estado" style="text;html=1;align=center;verticalAlign=middle;resizable=0;points=[];autosize=1;strokeColor=none;fillColor=none;" parent="1" vertex="1">
          <mxGeometry x="760" y="214" width="130" height="30" as="geometry" />
        </mxCell>
        <mxCell id="hzj7ClhZh16P4XhyqnI0-62" value="transporte" style="text;html=1;align=center;verticalAlign=middle;resizable=0;points=[];autosize=1;strokeColor=none;fillColor=none;" parent="1" vertex="1">
          <mxGeometry x="760" y="239" width="80" height="30" as="geometry" />
        </mxCell>
        <mxCell id="hzj7ClhZh16P4XhyqnI0-64" value="alojamiento" style="text;html=1;align=center;verticalAlign=middle;resizable=0;points=[];autosize=1;strokeColor=none;fillColor=none;" parent="1" vertex="1">
          <mxGeometry x="760" y="264" width="80" height="30" as="geometry" />
        </mxCell>
        <mxCell id="hzj7ClhZh16P4XhyqnI0-66" value="inicio" style="text;html=1;align=center;verticalAlign=middle;resizable=0;points=[];autosize=1;strokeColor=none;fillColor=none;" parent="1" vertex="1">
          <mxGeometry x="760" y="289" width="50" height="30" as="geometry" />
        </mxCell>
        <mxCell id="hzj7ClhZh16P4XhyqnI0-67" value="fin" style="text;html=1;align=center;verticalAlign=middle;resizable=0;points=[];autosize=1;strokeColor=none;fillColor=none;" parent="1" vertex="1">
          <mxGeometry x="760" y="315" width="40" height="30" as="geometry" />
        </mxCell>
        <mxCell id="hzj7ClhZh16P4XhyqnI0-70" value="(1,1)" style="text;html=1;align=center;verticalAlign=middle;resizable=0;points=[];autosize=1;strokeColor=none;fillColor=none;" parent="1" vertex="1">
          <mxGeometry x="-63" y="530" width="50" height="30" as="geometry" />
        </mxCell>
        <mxCell id="hzj7ClhZh16P4XhyqnI0-71" value="1:N" style="text;html=1;align=center;verticalAlign=middle;resizable=0;points=[];autosize=1;strokeColor=none;fillColor=none;" parent="1" vertex="1">
          <mxGeometry x="-25.090000000000003" y="445" width="40" height="30" as="geometry" />
        </mxCell>
        <mxCell id="hzj7ClhZh16P4XhyqnI0-72" value="(1,n)" style="text;html=1;align=center;verticalAlign=middle;resizable=0;points=[];autosize=1;strokeColor=none;fillColor=none;" parent="1" vertex="1">
          <mxGeometry x="-63" y="360" width="50" height="30" as="geometry" />
        </mxCell>
        <mxCell id="hzj7ClhZh16P4XhyqnI0-73" value="(1,n)" style="text;html=1;align=center;verticalAlign=middle;resizable=0;points=[];autosize=1;strokeColor=none;fillColor=none;" parent="1" vertex="1">
          <mxGeometry x="-2.98" y="330" width="50" height="30" as="geometry" />
        </mxCell>
        <mxCell id="hzj7ClhZh16P4XhyqnI0-74" value="(1,1)" style="text;html=1;align=center;verticalAlign=middle;resizable=0;points=[];autosize=1;strokeColor=none;fillColor=none;" parent="1" vertex="1">
          <mxGeometry x="-2.9800000000000004" y="270" width="50" height="30" as="geometry" />
        </mxCell>
        <mxCell id="hzj7ClhZh16P4XhyqnI0-75" value="(1,n)" style="text;html=1;align=center;verticalAlign=middle;resizable=0;points=[];autosize=1;strokeColor=none;fillColor=none;" parent="1" vertex="1">
          <mxGeometry x="-2.9800000000000004" y="300" width="50" height="30" as="geometry" />
        </mxCell>
        <mxCell id="hzj7ClhZh16P4XhyqnI0-76" value="(0,n)" style="text;html=1;align=center;verticalAlign=middle;resizable=0;points=[];autosize=1;strokeColor=none;fillColor=none;" parent="1" vertex="1">
          <mxGeometry x="430" y="270" width="50" height="30" as="geometry" />
        </mxCell>
        <mxCell id="hzj7ClhZh16P4XhyqnI0-77" value="(0,n)" style="text;html=1;align=center;verticalAlign=middle;resizable=0;points=[];autosize=1;strokeColor=none;fillColor=none;" parent="1" vertex="1">
          <mxGeometry x="430" y="300" width="50" height="30" as="geometry" />
        </mxCell>
        <mxCell id="hzj7ClhZh16P4XhyqnI0-78" value="(0,n)" style="text;html=1;align=center;verticalAlign=middle;resizable=0;points=[];autosize=1;strokeColor=none;fillColor=none;" parent="1" vertex="1">
          <mxGeometry x="430" y="330" width="50" height="30" as="geometry" />
        </mxCell>
        <mxCell id="hzj7ClhZh16P4XhyqnI0-79" value="1:N" style="text;html=1;align=center;verticalAlign=middle;resizable=0;points=[];autosize=1;strokeColor=none;fillColor=none;" parent="1" vertex="1">
          <mxGeometry x="220" y="190" width="40" height="30" as="geometry" />
        </mxCell>
        <mxCell id="hzj7ClhZh16P4XhyqnI0-80" value="N:M" style="text;html=1;align=center;verticalAlign=middle;resizable=0;points=[];autosize=1;strokeColor=none;fillColor=none;" parent="1" vertex="1">
          <mxGeometry x="215" y="280" width="50" height="30" as="geometry" />
        </mxCell>
        <mxCell id="hzj7ClhZh16P4XhyqnI0-81" value="N:M" style="text;html=1;align=center;verticalAlign=middle;resizable=0;points=[];autosize=1;strokeColor=none;fillColor=none;" parent="1" vertex="1">
          <mxGeometry x="215" y="370" width="50" height="30" as="geometry" />
        </mxCell>
        <mxCell id="hzj7ClhZh16P4XhyqnI0-83" value="(0,n)" style="text;html=1;align=center;verticalAlign=middle;resizable=0;points=[];autosize=1;strokeColor=none;fillColor=none;" parent="1" vertex="1">
          <mxGeometry x="540" y="360" width="50" height="30" as="geometry" />
        </mxCell>
        <mxCell id="hzj7ClhZh16P4XhyqnI0-84" value="(0,n)" style="text;html=1;align=center;verticalAlign=middle;resizable=0;points=[];autosize=1;strokeColor=none;fillColor=none;" parent="1" vertex="1">
          <mxGeometry x="600" y="330" width="50" height="30" as="geometry" />
        </mxCell>
        <mxCell id="hzj7ClhZh16P4XhyqnI0-85" value="(0,n)" style="text;html=1;align=center;verticalAlign=middle;resizable=0;points=[];autosize=1;strokeColor=none;fillColor=none;" parent="1" vertex="1">
          <mxGeometry x="540" y="530" width="50" height="30" as="geometry" />
        </mxCell>
        <mxCell id="hzj7ClhZh16P4XhyqnI0-86" value="N:M" style="text;html=1;align=center;verticalAlign=middle;resizable=0;points=[];autosize=1;strokeColor=none;fillColor=none;" parent="1" vertex="1">
          <mxGeometry x="570" y="445" width="50" height="30" as="geometry" />
        </mxCell>
        <mxCell id="hzj7ClhZh16P4XhyqnI0-87" value="(0,n)" style="text;html=1;align=center;verticalAlign=middle;resizable=0;points=[];autosize=1;strokeColor=none;fillColor=none;" parent="1" vertex="1">
          <mxGeometry x="600" y="560" width="50" height="30" as="geometry" />
        </mxCell>
        <mxCell id="hzj7ClhZh16P4XhyqnI0-88" value="(1,1)" style="text;html=1;align=center;verticalAlign=middle;resizable=0;points=[];autosize=1;strokeColor=none;fillColor=none;" parent="1" vertex="1">
          <mxGeometry x="790" y="560" width="50" height="30" as="geometry" />
        </mxCell>
        <mxCell id="hzj7ClhZh16P4XhyqnI0-89" value="1:N" style="text;html=1;align=center;verticalAlign=middle;resizable=0;points=[];autosize=1;strokeColor=none;fillColor=none;" parent="1" vertex="1">
          <mxGeometry x="700" y="540" width="40" height="30" as="geometry" />
        </mxCell>
        <mxCell id="hzj7ClhZh16P4XhyqnI0-91" value="(0,n)" style="text;html=1;align=center;verticalAlign=middle;resizable=0;points=[];autosize=1;strokeColor=none;fillColor=none;" parent="1" vertex="1">
          <mxGeometry x="900" y="530" width="50" height="30" as="geometry" />
        </mxCell>
        <mxCell id="hzj7ClhZh16P4XhyqnI0-92" value="N:M" style="text;html=1;align=center;verticalAlign=middle;resizable=0;points=[];autosize=1;strokeColor=none;fillColor=none;" parent="1" vertex="1">
          <mxGeometry x="933" y="445" width="50" height="30" as="geometry" />
        </mxCell>
        <mxCell id="hzj7ClhZh16P4XhyqnI0-94" value="(0,n)" style="text;html=1;align=center;verticalAlign=middle;resizable=0;points=[];autosize=1;strokeColor=none;fillColor=none;" parent="1" vertex="1">
          <mxGeometry x="480" y="270" width="50" height="30" as="geometry" />
        </mxCell>
        <mxCell id="hzj7ClhZh16P4XhyqnI0-95" value="(1,n)" style="text;html=1;align=center;verticalAlign=middle;resizable=0;points=[];autosize=1;strokeColor=none;fillColor=none;" parent="1" vertex="1">
          <mxGeometry x="300" y="56" width="50" height="30" as="geometry" />
        </mxCell>
        <mxCell id="hzj7ClhZh16P4XhyqnI0-96" value="N:M" style="text;html=1;align=center;verticalAlign=middle;resizable=0;points=[];autosize=1;strokeColor=none;fillColor=none;" parent="1" vertex="1">
          <mxGeometry x="398" y="160" width="50" height="30" as="geometry" />
        </mxCell>
        <mxCell id="hzj7ClhZh16P4XhyqnI0-97" value="(1,1)" style="text;html=1;align=center;verticalAlign=middle;resizable=0;points=[];autosize=1;strokeColor=none;fillColor=none;" parent="1" vertex="1">
          <mxGeometry x="600" y="225" width="50" height="30" as="geometry" />
        </mxCell>
        <mxCell id="hzj7ClhZh16P4XhyqnI0-98" value="(0,1)" style="text;html=1;align=center;verticalAlign=middle;resizable=0;points=[];autosize=1;strokeColor=none;fillColor=none;" parent="1" vertex="1">
          <mxGeometry x="600" y="-300" width="50" height="30" as="geometry" />
        </mxCell>
        <mxCell id="hzj7ClhZh16P4XhyqnI0-99" value="1:1" style="text;html=1;align=center;verticalAlign=middle;resizable=0;points=[];autosize=1;strokeColor=none;fillColor=none;" parent="1" vertex="1">
          <mxGeometry x="635" y="-35" width="40" height="30" as="geometry" />
        </mxCell>
        <mxCell id="hzj7ClhZh16P4XhyqnI0-100" value="(1,1)" style="text;html=1;align=center;verticalAlign=middle;resizable=0;points=[];autosize=1;strokeColor=none;fillColor=none;" parent="1" vertex="1">
          <mxGeometry x="550" y="-391" width="50" height="30" as="geometry" />
        </mxCell>
        <mxCell id="hzj7ClhZh16P4XhyqnI0-101" value="(0,n)" style="text;html=1;align=center;verticalAlign=middle;resizable=0;points=[];autosize=1;strokeColor=none;fillColor=none;" parent="1" vertex="1">
          <mxGeometry x="710" y="-530" width="50" height="30" as="geometry" />
        </mxCell>
        <mxCell id="hzj7ClhZh16P4XhyqnI0-102" value="1:N" style="text;html=1;align=center;verticalAlign=middle;resizable=0;points=[];autosize=1;strokeColor=none;fillColor=none;" parent="1" vertex="1">
          <mxGeometry x="580" y="-550" width="40" height="30" as="geometry" />
        </mxCell>
        <mxCell id="FY-KwGEOwVIW9rQ6D4z2-1" style="edgeStyle=none;shape=connector;rounded=0;orthogonalLoop=1;jettySize=auto;html=1;labelBackgroundColor=default;fontFamily=Helvetica;fontSize=11;fontColor=default;startArrow=none;startFill=0;endArrow=oval;endFill=0;endSize=12;strokeColor=default;dashed=1;exitX=0;exitY=0.5;exitDx=0;exitDy=0;" parent="1" source="3gWHudCBHlOKcS4b1Oc7-73" edge="1">
          <mxGeometry relative="1" as="geometry">
            <mxPoint x="410" y="640" as="targetPoint" />
            <mxPoint x="460" y="630" as="sourcePoint" />
          </mxGeometry>
        </mxCell>
        <mxCell id="FY-KwGEOwVIW9rQ6D4z2-2" value="descripcion" style="text;html=1;align=center;verticalAlign=middle;resizable=0;points=[];autosize=1;strokeColor=none;fillColor=none;" parent="1" vertex="1">
          <mxGeometry x="330" y="624" width="80" height="30" as="geometry" />
        </mxCell>
        <mxCell id="lJ8SzEV2wu39kDBbQSC--1" style="edgeStyle=none;rounded=0;orthogonalLoop=1;jettySize=auto;html=1;exitX=0;exitY=0.5;exitDx=0;exitDy=0;shadow=0;labelBackgroundColor=#0A0A0A;startFill=0;endArrow=oval;endFill=0;endSize=12;dashed=1;" parent="1" source="OAtFKCcMEsRw6Mtl-Hrg-23" edge="1">
          <mxGeometry relative="1" as="geometry">
            <mxPoint x="180" y="81" as="sourcePoint" />
            <mxPoint x="120" y="95" as="targetPoint" />
          </mxGeometry>
        </mxCell>
        <mxCell id="lJ8SzEV2wu39kDBbQSC--2" value="comentario" style="text;html=1;align=center;verticalAlign=middle;resizable=0;points=[];autosize=1;strokeColor=none;fillColor=none;" parent="1" vertex="1">
          <mxGeometry x="40" y="79" width="80" height="30" as="geometry" />
        </mxCell>
        <mxCell id="lJ8SzEV2wu39kDBbQSC--12" value="TRANSPORTE" style="whiteSpace=wrap;html=1;fontFamily=Helvetica;fontSize=11;fontColor=default;" parent="1" vertex="1">
          <mxGeometry x="180" y="-101" width="120" height="60" as="geometry" />
        </mxCell>
        <mxCell id="lJ8SzEV2wu39kDBbQSC--13" style="edgeStyle=none;rounded=0;orthogonalLoop=1;jettySize=auto;html=1;shadow=0;labelBackgroundColor=#0A0A0A;startFill=0;endArrow=oval;endFill=1;endSize=12;exitX=0;exitY=0.5;exitDx=0;exitDy=0;" parent="1" source="lJ8SzEV2wu39kDBbQSC--12" edge="1">
          <mxGeometry relative="1" as="geometry">
            <mxPoint x="170" y="-95" as="sourcePoint" />
            <mxPoint x="120" y="-105" as="targetPoint" />
          </mxGeometry>
        </mxCell>
        <mxCell id="lJ8SzEV2wu39kDBbQSC--14" style="edgeStyle=none;rounded=0;orthogonalLoop=1;jettySize=auto;html=1;shadow=0;labelBackgroundColor=#0A0A0A;startFill=0;endArrow=oval;endFill=0;endSize=12;exitX=0;exitY=0.5;exitDx=0;exitDy=0;" parent="1" source="lJ8SzEV2wu39kDBbQSC--12" edge="1">
          <mxGeometry relative="1" as="geometry">
            <mxPoint x="180" y="-59" as="sourcePoint" />
            <mxPoint x="120" y="-80" as="targetPoint" />
          </mxGeometry>
        </mxCell>
        <mxCell id="lJ8SzEV2wu39kDBbQSC--15" style="edgeStyle=none;rounded=0;orthogonalLoop=1;jettySize=auto;html=1;exitX=0;exitY=0.5;exitDx=0;exitDy=0;shadow=0;labelBackgroundColor=#0A0A0A;startFill=0;endArrow=oval;endFill=0;endSize=12;" parent="1" source="lJ8SzEV2wu39kDBbQSC--12" edge="1">
          <mxGeometry relative="1" as="geometry">
            <mxPoint x="177" y="-80" as="sourcePoint" />
            <mxPoint x="120" y="-55" as="targetPoint" />
          </mxGeometry>
        </mxCell>
        <mxCell id="lJ8SzEV2wu39kDBbQSC--16" value="id" style="text;html=1;align=center;verticalAlign=middle;resizable=0;points=[];autosize=1;strokeColor=none;fillColor=none;" parent="1" vertex="1">
          <mxGeometry x="90" y="-120" width="30" height="30" as="geometry" />
        </mxCell>
        <mxCell id="lJ8SzEV2wu39kDBbQSC--17" value="nombre" style="text;html=1;align=center;verticalAlign=middle;resizable=0;points=[];autosize=1;strokeColor=none;fillColor=none;" parent="1" vertex="1">
          <mxGeometry x="60" y="-96" width="60" height="30" as="geometry" />
        </mxCell>
        <mxCell id="lJ8SzEV2wu39kDBbQSC--18" value="importe" style="text;html=1;align=center;verticalAlign=middle;resizable=0;points=[];autosize=1;strokeColor=none;fillColor=none;" parent="1" vertex="1">
          <mxGeometry x="60" y="-71" width="60" height="30" as="geometry" />
        </mxCell>
        <mxCell id="lJ8SzEV2wu39kDBbQSC--19" style="edgeStyle=none;rounded=0;orthogonalLoop=1;jettySize=auto;html=1;exitX=0;exitY=0.5;exitDx=0;exitDy=0;shadow=0;labelBackgroundColor=#0A0A0A;startFill=0;endArrow=oval;endFill=0;endSize=12;dashed=1;" parent="1" source="lJ8SzEV2wu39kDBbQSC--12" edge="1">
          <mxGeometry relative="1" as="geometry">
            <mxPoint x="180" y="-44" as="sourcePoint" />
            <mxPoint x="120" y="-30" as="targetPoint" />
          </mxGeometry>
        </mxCell>
        <mxCell id="lJ8SzEV2wu39kDBbQSC--20" value="comentario" style="text;html=1;align=center;verticalAlign=middle;resizable=0;points=[];autosize=1;strokeColor=none;fillColor=none;" parent="1" vertex="1">
          <mxGeometry x="40" y="-46" width="80" height="30" as="geometry" />
        </mxCell>
        <mxCell id="lJ8SzEV2wu39kDBbQSC--23" style="edgeStyle=orthogonalEdgeStyle;rounded=0;orthogonalLoop=1;jettySize=auto;html=1;endArrow=none;endFill=0;entryX=1;entryY=0.5;entryDx=0;entryDy=0;" parent="1" source="lJ8SzEV2wu39kDBbQSC--22" target="lJ8SzEV2wu39kDBbQSC--12" edge="1">
          <mxGeometry relative="1" as="geometry">
            <mxPoint x="320" y="-70" as="targetPoint" />
            <Array as="points">
              <mxPoint x="540" y="-70" />
              <mxPoint x="300" y="-70" />
            </Array>
          </mxGeometry>
        </mxCell>
        <mxCell id="lJ8SzEV2wu39kDBbQSC--22" value="utiliza" style="rhombus;whiteSpace=wrap;html=1;fontFamily=Helvetica;fontSize=11;fontColor=default;" parent="1" vertex="1">
          <mxGeometry x="500" y="10" width="80" height="40" as="geometry" />
        </mxCell>
        <mxCell id="lJ8SzEV2wu39kDBbQSC--24" value="N:M" style="text;html=1;align=center;verticalAlign=middle;resizable=0;points=[];autosize=1;strokeColor=none;fillColor=none;" parent="1" vertex="1">
          <mxGeometry x="456" y="15" width="50" height="30" as="geometry" />
        </mxCell>
        <mxCell id="lJ8SzEV2wu39kDBbQSC--25" value="(1,n)" style="text;html=1;align=center;verticalAlign=middle;resizable=0;points=[];autosize=1;strokeColor=none;fillColor=none;" parent="1" vertex="1">
          <mxGeometry x="300" y="-71" width="50" height="30" as="geometry" />
        </mxCell>
        <mxCell id="lJ8SzEV2wu39kDBbQSC--26" value="(0,n)" style="text;html=1;align=center;verticalAlign=middle;resizable=0;points=[];autosize=1;strokeColor=none;fillColor=none;" parent="1" vertex="1">
          <mxGeometry x="540" y="270" width="50" height="30" as="geometry" />
        </mxCell>
      </root>
    </mxGraphModel>
  </diagram>
</mxfile>
